<svg xmlns="http://www.w3.org/2000/svg" version="1.1" xmlns:xlink="http://www.w3.org/1999/xlink" xmlns:svgjs="http://svgjs.dev/svgjs" width="128" height="128" viewBox="0 0 128 128"><g transform="matrix(0.8046875,0,0,0.8046875,12.631177661250874,12.333870967741937)"><svg viewBox="0 0 154 155" data-background-color="#ffffff" preserveAspectRatio="xMidYMid meet" height="128" width="128" xmlns="http://www.w3.org/2000/svg" xmlns:xlink="http://www.w3.org/1999/xlink"><g id="tight-bounds" transform="matrix(1,0,0,1,-0.1961297071129593,0.25)"><svg viewBox="0 0 154.39225941422595 154.5" height="154.5" width="154.39225941422595"><g><svg viewBox="0 0 154.39225941422595 154.5" height="154.5" width="154.39225941422595"><g><svg viewBox="0 0 154.39225941422595 154.5" height="154.5" width="154.39225941422595"><g id="textblocktransform"><svg viewBox="0 0 154.39225941422595 154.5" height="154.5" width="154.39225941422595" id="textblock"><g><svg viewBox="0 0 154.39225941422595 154.5" height="154.5" width="154.39225941422595"><g transform="matrix(1,0,0,1,0,0)"><svg width="154.39225941422595" viewBox="3.64 -35.01 34.98 35.01" height="154.5" data-palette-color="#000000"><path d="M38.62-8.91L38.62-7.69Q38.62-6.52 38.22-5.18 37.82-3.83 36.9-2.69 35.99-1.54 34.52-0.77 33.06 0 30.93 0L30.93 0 6.84 0Q6.15 0 5.57-0.24 4.98-0.49 4.55-0.92 4.13-1.34 3.88-1.93 3.64-2.51 3.64-3.2L3.64-3.2 3.64-31.81Q3.64-32.47 3.88-33.06 4.13-33.64 4.55-34.08 4.98-34.52 5.57-34.77 6.15-35.01 6.84-35.01L6.84-35.01 28.08-35.01Q29.25-35.01 30.59-34.59 31.93-34.18 33.09-33.26 34.25-32.35 35.02-30.88 35.79-29.42 35.79-27.29L35.79-27.29 35.79-26.1Q35.79-24.41 35.23-22.47 34.67-20.53 33.42-18.8L33.42-18.8Q34.5-18.14 35.44-17.21 36.38-16.28 37.08-15.06 37.79-13.84 38.21-12.3 38.62-10.77 38.62-8.91L38.62-8.91ZM32.28-7.74L32.28-8.91Q32.28-10.16 31.88-11.15 31.49-12.13 30.79-12.84 30.08-13.55 29.08-13.93 28.08-14.31 26.83-14.31L26.83-14.31 12.52-14.31 12.52-20.7 23.97-20.7Q25.22-20.7 26.22-21.08 27.22-21.46 27.93-22.17 28.64-22.88 29.02-23.86 29.39-24.85 29.39-26.1L29.39-26.1 29.39-27.29Q29.39-28.66 28.08-28.66L28.08-28.66 9.99-28.66 9.99-6.35 30.93-6.35Q31.1-6.35 31.35-6.37 31.59-6.4 31.79-6.52 31.98-6.64 32.13-6.93 32.28-7.23 32.28-7.74L32.28-7.74Z" opacity="1" transform="matrix(1,0,0,1,0,0)" fill="#000000" class="wordmark-text-0" data-fill-palette-color="primary" id="text-0"></path></svg></g></svg></g></svg></g></svg></g></svg></g><defs></defs></svg><rect width="154.39225941422595" height="154.5" fill="none" stroke="none" visibility="hidden"></rect></g></svg></g></svg>