<svg xmlns="http://www.w3.org/2000/svg" version="1.1" xmlns:xlink="http://www.w3.org/1999/xlink" xmlns:svgjs="http://svgjs.dev/svgjs" width="2000" height="328" viewBox="0 0 2000 328"><g transform="matrix(1,0,0,1,-1.2121212121212466,0.8384029306581056)"><svg viewBox="0 0 396 65" data-background-color="#ffffff" preserveAspectRatio="xMidYMid meet" height="328" width="2000" xmlns="http://www.w3.org/2000/svg" xmlns:xlink="http://www.w3.org/1999/xlink"><g id="tight-bounds" transform="matrix(1,0,0,1,0.2400000000000091,-0.166146922234077)"><svg viewBox="0 0 395.52 65.33229384446813" height="65.33229384446813" width="395.52"><g><svg viewBox="0 0 395.52 65.33229384446813" height="65.33229384446813" width="395.52"><g><svg viewBox="0 0 395.52 65.33229384446813" height="65.33229384446813" width="395.52"><g id="textblocktransform"><svg viewBox="0 0 395.52 65.33229384446813" height="65.33229384446813" width="395.52" id="textblock"><g><svg viewBox="0 0 395.52 38.284507486209606" height="38.284507486209606" width="395.52"><g transform="matrix(1,0,0,1,0,0)"><svg width="395.52" viewBox="3.64 -35.49890909090909 371.76 35.98890909090909" height="38.284507486209606" data-palette-color="#000000"><path d="M38.62-8.91L38.62-7.69Q38.62-6.52 38.22-5.18 37.82-3.83 36.9-2.69 35.99-1.54 34.52-0.77 33.06 0 30.93 0L30.93 0 6.84 0Q6.15 0 5.57-0.24 4.98-0.49 4.55-0.92 4.13-1.34 3.88-1.93 3.64-2.51 3.64-3.2L3.64-3.2 3.64-31.81Q3.64-32.47 3.88-33.06 4.13-33.64 4.55-34.08 4.98-34.52 5.57-34.77 6.15-35.01 6.84-35.01L6.84-35.01 28.08-35.01Q29.25-35.01 30.59-34.59 31.93-34.18 33.09-33.26 34.25-32.35 35.02-30.88 35.79-29.42 35.79-27.29L35.79-27.29 35.79-26.1Q35.79-24.41 35.23-22.47 34.67-20.53 33.42-18.8L33.42-18.8Q34.5-18.14 35.44-17.21 36.38-16.28 37.08-15.06 37.79-13.84 38.21-12.3 38.62-10.77 38.62-8.91L38.62-8.91ZM32.28-7.74L32.28-8.91Q32.28-10.16 31.88-11.15 31.49-12.13 30.79-12.84 30.08-13.55 29.08-13.93 28.08-14.31 26.83-14.31L26.83-14.31 12.52-14.31 12.52-20.7 23.97-20.7Q25.22-20.7 26.22-21.08 27.22-21.46 27.93-22.17 28.64-22.88 29.02-23.86 29.39-24.85 29.39-26.1L29.39-26.1 29.39-27.29Q29.39-28.66 28.08-28.66L28.08-28.66 9.99-28.66 9.99-6.35 30.93-6.35Q31.1-6.35 31.35-6.37 31.59-6.4 31.79-6.52 31.98-6.64 32.13-6.93 32.28-7.23 32.28-7.74L32.28-7.74ZM79.12-27.29L79.12-23.24Q79.12-21.07 78.59-19.36 78.05-17.65 77.13-16.35 76.22-15.04 75.02-14.11 73.83-13.18 72.52-12.59 71.21-11.99 69.88-11.72 68.55-11.45 67.38-11.45L67.38-11.45 80.64 0 70.82 0 57.59-11.45 53.02-11.45 53.02-17.8 67.38-17.8Q68.58-17.9 69.57-18.3 70.55-18.7 71.27-19.38 71.99-20.07 72.39-21.03 72.78-22 72.78-23.24L72.78-23.24 72.78-27.25Q72.78-27.78 72.64-28.06 72.51-28.34 72.3-28.48 72.09-28.61 71.86-28.64 71.63-28.66 71.43-28.66L71.43-28.66 50.49-28.66 50.49 0 44.14 0 44.14-31.81Q44.14-32.47 44.38-33.06 44.63-33.64 45.05-34.08 45.48-34.52 46.07-34.77 46.65-35.01 47.34-35.01L47.34-35.01 71.43-35.01Q73.56-35.01 75.02-34.24 76.49-33.47 77.4-32.31 78.32-31.15 78.72-29.81 79.12-28.47 79.12-27.29L79.12-27.29ZM119.84-31.81L119.84 0 113.5 0 113.5-8.59 91.18-8.59 91.18 0 84.83 0 84.83-17.5Q84.83-21.34 86.15-24.56 87.47-27.78 89.81-30.1 92.16-32.42 95.36-33.72 98.55-35.01 102.34-35.01L102.34-35.01 116.65-35.01Q117.3-35.01 117.89-34.77 118.48-34.52 118.92-34.08 119.36-33.64 119.6-33.06 119.84-32.47 119.84-31.81L119.84-31.81ZM91.18-17.5L91.18-14.94 113.5-14.94 113.5-28.66 102.34-28.66Q102.05-28.66 101.11-28.58 100.17-28.49 98.93-28.15 97.7-27.81 96.33-27.1 94.97-26.39 93.82-25.15 92.67-23.9 91.93-22.03 91.18-20.17 91.18-17.5L91.18-17.5ZM162.2-35.01L162.2-2.71Q162.2-2.03 161.94-1.44 161.69-0.85 161.26-0.43 160.83 0 160.25 0.24 159.66 0.49 159 0.49L159 0.49Q158.42 0.49 157.82 0.27 157.22 0.05 156.76-0.44L156.76-0.44 133.56-24.66 133.56 0 127.21 0 127.21-32.3Q127.21-33.28 127.76-34.07 128.31-34.86 129.17-35.25L129.17-35.25Q130.07-35.62 131.02-35.44 131.97-35.25 132.66-34.55L132.66-34.55 155.85-10.35 155.85-35.01 162.2-35.01ZM204.51-20.36L204.51-14.65Q204.51-11.45 203.4-8.76 202.28-6.08 200.33-4.14 198.38-2.2 195.69-1.1 193.01 0 189.86 0L189.86 0 172.72 0Q172.04 0 171.45-0.24 170.86-0.49 170.44-0.92 170.01-1.34 169.77-1.93 169.52-2.51 169.52-3.2L169.52-3.2 169.52-31.81Q169.52-32.47 169.77-33.06 170.01-33.64 170.44-34.08 170.86-34.52 171.45-34.77 172.04-35.01 172.72-35.01L172.72-35.01 189.86-35.01Q193.01-35.01 195.69-33.91 198.38-32.81 200.33-30.87 202.28-28.93 203.4-26.23 204.51-23.54 204.51-20.36L204.51-20.36ZM198.16-14.65L198.16-20.36Q198.16-22.22 197.56-23.75 196.96-25.29 195.86-26.38 194.77-27.47 193.24-28.06 191.71-28.66 189.86-28.66L189.86-28.66 175.87-28.66 175.87-6.35 189.86-6.35Q191.71-6.35 193.24-6.95 194.77-7.54 195.86-8.63 196.96-9.72 197.56-11.24 198.16-12.77 198.16-14.65L198.16-14.65ZM248.69-35.01L255.14-35.01 249.28-2.2Q249.08-1.22 248.4-0.51 247.72 0.2 246.74 0.39L246.74 0.39Q245.74 0.56 244.85 0.17 243.96-0.22 243.44-1.05L243.44-1.05 231.82-20.14 220.18-1.05Q219.76-0.34 219.04 0.05 218.32 0.44 217.49 0.44L217.49 0.44Q216.34 0.44 215.47-0.29 214.59-1.03 214.39-2.2L214.39-2.2 208.48-35.01 214.93-35.01 219.13-11.89 229.14-27.86Q229.55-28.56 230.27-28.96 230.99-29.35 231.82-29.35L231.82-29.35Q232.65-29.35 233.36-28.96 234.07-28.56 234.53-27.86L234.53-27.86 244.49-11.89 248.69-35.01ZM294.52-31.81L294.52 0 288.17 0 288.17-8.59 265.85-8.59 265.85 0 259.51 0 259.51-17.5Q259.51-21.34 260.82-24.56 262.14-27.78 264.49-30.1 266.83-32.42 270.03-33.72 273.23-35.01 277.01-35.01L277.01-35.01 291.32-35.01Q291.98-35.01 292.56-34.77 293.15-34.52 293.59-34.08 294.03-33.64 294.27-33.06 294.52-32.47 294.52-31.81L294.52-31.81ZM265.85-17.5L265.85-14.94 288.17-14.94 288.17-28.66 277.01-28.66Q276.72-28.66 275.78-28.58 274.84-28.49 273.61-28.15 272.37-27.81 271.01-27.1 269.64-26.39 268.49-25.15 267.34-23.9 266.6-22.03 265.85-20.17 265.85-17.5L265.85-17.5ZM334.04-6.35L334.04 0 305.09 0Q304.4 0 303.82-0.24 303.23-0.49 302.8-0.92 302.38-1.34 302.13-1.93 301.89-2.51 301.89-3.2L301.89-3.2 301.89-35.01 308.23-35.01 308.23-6.35 334.04-6.35ZM357.4-17.5L375.4 0 366.39 0 352.1-14.31 347.64-14.31 347.64-20.7 352.1-20.7 366.39-35.01 375.4-35.01 357.4-17.5ZM345.1-35.01L345.1 0 338.75 0 338.75-35.01 345.1-35.01Z" opacity="1" transform="matrix(1,0,0,1,0,0)" fill="#000000" class="wordmark-text-0" data-fill-palette-color="primary" id="text-0"></path></svg></g></svg></g><g transform="matrix(1,0,0,1,0,47.322560875524026)"><svg viewBox="0 0 232.209792 18.0097329689441" height="18.0097329689441" width="232.209792"><g transform="matrix(1,0,0,1,0,0)"><svg width="232.209792" viewBox="0.5 -36.3 611.73 47.449999999999996" height="18.0097329689441" data-palette-color="#292929"><path d="M29.75 0L23.05-20.55Q22.3-22.6 21.85-24.55L21.85-24.55Q21.6-23.6 21.38-22.65 21.15-21.7 20.8-20.55L20.8-20.55 14.3 0 9.9 0 0.5-33.85 6.45-33.85 10.85-16.9Q12-12.5 12.5-9.8L12.5-9.8Q12.85-11.2 13.33-12.9 13.8-14.6 14.5-16.8L14.5-16.8 19.8-33.85 24.25-33.85 29.55-16.8Q30.25-14.55 30.75-12.7 31.25-10.85 31.55-9.45L31.55-9.45Q31.75-10.85 32.13-12.7 32.5-14.55 33.1-16.8L33.1-16.8 37.5-33.85 43.55-33.85 34.15 0 29.75 0ZM65.3-23.85L65.3-12.05Q65.3-9.05 65.67-7.03 66.05-5 66.5-3.75L66.5-3.75Q67.05-2.25 67.7-1.4L67.7-1.4 63.25 0.4Q62.6-0.25 62.05-1.15L62.05-1.15Q61.6-1.95 61.2-3.08 60.8-4.2 60.7-5.75L60.7-5.75Q59.85-2.75 57.97-1.23 56.1 0.3 52.9 0.3L52.9 0.3Q50.55 0.3 48.82-0.58 47.1-1.45 45.95-3.08 44.8-4.7 44.25-7 43.7-9.3 43.7-12.1L43.7-12.1Q43.7-14.95 44.57-17.38 45.45-19.8 47.02-21.55 48.6-23.3 50.8-24.3 53-25.3 55.65-25.3L55.65-25.3Q57.15-25.3 58.77-25.08 60.4-24.85 61.8-24.6 63.2-24.35 64.17-24.13 65.15-23.9 65.3-23.85L65.3-23.85ZM53.85-3.7Q55.1-3.7 56.15-4.55 57.2-5.4 57.97-6.78 58.75-8.15 59.17-9.93 59.6-11.7 59.6-13.55L59.6-13.55 59.6-20.75Q59.1-20.9 58.1-21.1 57.1-21.3 56.3-21.3L56.3-21.3Q54.4-21.3 53.17-20.65 51.95-20 51.2-18.85 50.45-17.7 50.15-16.1 49.85-14.5 49.85-12.6L49.85-12.6Q49.85-10.85 49.95-9.25 50.05-7.65 50.47-6.4 50.9-5.15 51.7-4.42 52.5-3.7 53.85-3.7L53.85-3.7ZM77.3 0.2Q74.45 0.2 73.09-1.38 71.75-2.95 71.75-5.4L71.75-5.4 71.75-35.25 77.45-36.3 77.45-5.95Q77.45-4.8 77.9-4.35 78.34-3.9 79.2-3.9L79.2-3.9Q79.7-3.9 80.17-3.95 80.65-4 81.05-4.1L81.05-4.1Q81.5-4.2 81.84-4.3L81.84-4.3 82.55-0.7Q81.9-0.45 81.09-0.25L81.09-0.25Q80.4-0.05 79.45 0.08 78.5 0.2 77.3 0.2L77.3 0.2ZM86.54-35.25L92.24-36.25 92.24-22Q92.64-22.5 93.27-23.08 93.89-23.65 94.84-24.15 95.79-24.65 97.04-25 98.29-25.35 99.94-25.35L99.94-25.35Q101.49-25.35 102.84-24.9 104.19-24.45 105.17-23.6 106.14-22.75 106.72-21.53 107.29-20.3 107.29-18.75L107.29-18.75Q107.29-16.5 106.37-15.05 105.44-13.6 104.29-12.75L104.29-12.75Q102.99-11.75 101.29-11.15L101.29-11.15 108.29 0 101.84 0 94.64-12.45 94.59-12.95Q94.99-13.05 96.12-13.4 97.24-13.75 98.44-14.4 99.64-15.05 100.57-16.03 101.49-17 101.49-18.35L101.49-18.35Q101.49-19.8 100.64-20.55 99.79-21.3 98.39-21.3L98.39-21.3Q96.49-21.3 95.29-20.55 94.09-19.8 93.42-18.85 92.74-17.9 92.49-17.05 92.24-16.2 92.24-16.05L92.24-16.05 92.24 0 86.54 0 86.54-35.25ZM122.54-20.85L122.54-24.9 127.04-24.9 128.04-30.75 132.74-31.8 132.74-24.9 138.89-24.9 138.19-20.85 132.74-20.85 132.74-6.05Q132.74-4.75 133.44-4.38 134.14-4 134.99-4L134.99-4Q135.69-4 136.39-4.1 137.09-4.2 137.64-4.35L137.64-4.35Q138.29-4.5 138.89-4.7L138.89-4.7 139.84-0.95 139.39-0.8Q138.94-0.6 138.06-0.38 137.19-0.15 136.01 0.03 134.84 0.2 133.44 0.2L133.44 0.2Q132.04 0.2 130.86-0.1 129.69-0.4 128.84-1.07 127.99-1.75 127.51-2.8 127.04-3.85 127.04-5.4L127.04-5.4 127.04-20.85 122.54-20.85ZM149.03-36.25L149.03-21.7Q150.49-23.6 152.51-24.45 154.53-25.3 156.78-25.3L156.78-25.3Q160.64-25.3 162.36-22.98 164.09-20.65 164.09-16.7L164.09-16.7 164.09 0 158.39 0 158.39-16.3Q158.39-18.4 157.64-19.63 156.89-20.85 155.09-20.85L155.09-20.85Q154.03-20.85 152.96-20.3 151.89-19.75 151.01-18.73 150.14-17.7 149.59-16.3 149.03-14.9 149.03-13.2L149.03-13.2 149.03 0 143.34 0 143.34-35.25 149.03-36.25ZM168.83-11.85Q168.83-15.2 169.76-17.75 170.68-20.3 172.31-22.03 173.93-23.75 176.13-24.63 178.33-25.5 180.88-25.5L180.88-25.5Q183.13-25.5 184.71-24.95 186.28-24.4 187.28-23.45 188.28-22.5 188.76-21.2 189.23-19.9 189.23-18.4L189.23-18.4Q189.23-16.6 188.23-14.98 187.23-13.35 185.36-12.13 183.48-10.9 180.83-10.18 178.18-9.45 174.88-9.4L174.88-9.4Q175.03-8.25 175.36-7.23 175.68-6.2 176.31-5.43 176.93-4.65 177.93-4.2 178.93-3.75 180.43-3.75L180.43-3.75Q181.53-3.75 182.78-4 184.03-4.25 185.08-4.6L185.08-4.6Q186.33-5 187.53-5.5L187.53-5.5 189.03-1.95Q187.73-1.3 186.23-0.8L186.23-0.8Q184.93-0.35 183.23 0 181.53 0.35 179.63 0.35L179.63 0.35Q176.73 0.35 174.68-0.53 172.63-1.4 171.33-3 170.03-4.6 169.43-6.85 168.83-9.1 168.83-11.85L168.83-11.85ZM180.43-21.6Q178.78-21.6 177.71-20.83 176.63-20.05 175.98-18.82 175.33-17.6 175.06-16.07 174.78-14.55 174.73-13L174.73-13Q177.13-13.1 178.81-13.63 180.48-14.15 181.53-14.93 182.58-15.7 183.06-16.6 183.53-17.5 183.53-18.4L183.53-18.4Q183.53-19.85 182.68-20.73 181.83-21.6 180.43-21.6L180.43-21.6ZM233.48-24.9L239.28-24.9 239.38-24.5Q239.43-24.05 239.53-23.35 239.63-22.65 239.7-21.7 239.78-20.75 239.78-19.8L239.78-19.8Q239.78-14.25 239.15-10.4 238.53-6.55 237.1-4.17 235.68-1.8 233.33-0.73 230.98 0.35 227.53 0.35L227.53 0.35Q222.68 0.35 220.88-3.65L220.88-3.65Q219.98-1.6 218.4-0.63 216.83 0.35 213.78 0.35L213.78 0.35Q209.88 0.35 208.18-1.9 206.48-4.15 206.48-8.15L206.48-8.15 206.48-24.9 212.18-24.9 212.18-8.6Q212.18-6.5 212.93-5.13 213.68-3.75 215.48-3.75L215.48-3.75Q217.78-3.75 219.03-6 220.28-8.25 220.28-13.45L220.28-13.45 220.28-24.9 225.93-24.9Q225.88-21.15 225.88-17.95L225.88-17.95Q225.88-16.55 225.85-15.15 225.83-13.75 225.83-12.5 225.83-11.25 225.83-10.23 225.83-9.2 225.83-8.6L225.83-8.6Q225.83-6.5 226.63-5.13 227.43-3.75 229.23-3.75L229.23-3.75Q230.98-3.75 231.95-5.1 232.93-6.45 233.38-8.63 233.83-10.8 233.93-13.58 234.03-16.35 234.03-19.2L234.03-19.2Q234.03-20.35 233.95-21.38 233.88-22.4 233.75-23.2 233.63-24 233.58-24.45L233.58-24.45 233.48-24.9ZM265.38-23.85L265.38-12.05Q265.38-9.05 265.75-7.03 266.13-5 266.58-3.75L266.58-3.75Q267.13-2.25 267.78-1.4L267.78-1.4 263.33 0.4Q262.68-0.25 262.13-1.15L262.13-1.15Q261.68-1.95 261.28-3.08 260.88-4.2 260.78-5.75L260.78-5.75Q259.93-2.75 258.05-1.23 256.18 0.3 252.98 0.3L252.98 0.3Q250.63 0.3 248.9-0.58 247.18-1.45 246.03-3.08 244.88-4.7 244.33-7 243.78-9.3 243.78-12.1L243.78-12.1Q243.78-14.95 244.65-17.38 245.53-19.8 247.1-21.55 248.68-23.3 250.88-24.3 253.08-25.3 255.73-25.3L255.73-25.3Q257.23-25.3 258.85-25.08 260.48-24.85 261.88-24.6 263.28-24.35 264.25-24.13 265.23-23.9 265.38-23.85L265.38-23.85ZM253.93-3.7Q255.18-3.7 256.23-4.55 257.28-5.4 258.05-6.78 258.83-8.15 259.25-9.93 259.68-11.7 259.68-13.55L259.68-13.55 259.68-20.75Q259.18-20.9 258.18-21.1 257.18-21.3 256.38-21.3L256.38-21.3Q254.48-21.3 253.25-20.65 252.03-20 251.28-18.85 250.53-17.7 250.23-16.1 249.93-14.5 249.93-12.6L249.93-12.6Q249.93-10.85 250.03-9.25 250.13-7.65 250.55-6.4 250.98-5.15 251.78-4.42 252.58-3.7 253.93-3.7L253.93-3.7ZM277.37 0.2Q274.52 0.2 273.17-1.38 271.82-2.95 271.82-5.4L271.82-5.4 271.82-35.25 277.52-36.3 277.52-5.95Q277.52-4.8 277.97-4.35 278.42-3.9 279.27-3.9L279.27-3.9Q279.77-3.9 280.25-3.95 280.72-4 281.12-4.1L281.12-4.1Q281.57-4.2 281.92-4.3L281.92-4.3 282.62-0.7Q281.97-0.45 281.17-0.25L281.17-0.25Q280.47-0.05 279.52 0.08 278.57 0.2 277.37 0.2L277.37 0.2ZM286.62-35.25L292.32-36.25 292.32-22Q292.72-22.5 293.35-23.08 293.97-23.65 294.92-24.15 295.87-24.65 297.12-25 298.37-25.35 300.02-25.35L300.02-25.35Q301.57-25.35 302.92-24.9 304.27-24.45 305.25-23.6 306.22-22.75 306.8-21.53 307.37-20.3 307.37-18.75L307.37-18.75Q307.37-16.5 306.45-15.05 305.52-13.6 304.37-12.75L304.37-12.75Q303.07-11.75 301.37-11.15L301.37-11.15 308.37 0 301.92 0 294.72-12.45 294.67-12.95Q295.07-13.05 296.2-13.4 297.32-13.75 298.52-14.4 299.72-15.05 300.65-16.03 301.57-17 301.57-18.35L301.57-18.35Q301.57-19.8 300.72-20.55 299.87-21.3 298.47-21.3L298.47-21.3Q296.57-21.3 295.37-20.55 294.17-19.8 293.5-18.85 292.82-17.9 292.57-17.05 292.32-16.2 292.32-16.05L292.32-16.05 292.32 0 286.62 0 286.62-35.25ZM335.27-25.5Q341.02-25.5 343.62-22.1 346.22-18.7 346.22-12.75L346.22-12.75Q346.22-9.95 345.52-7.53 344.82-5.1 343.39-3.33 341.97-1.55 339.82-0.53 337.67 0.5 334.82 0.5L334.82 0.5Q331.97 0.5 329.89-0.38 327.82-1.25 326.47-2.9 325.12-4.55 324.49-6.9 323.87-9.25 323.87-12.2L323.87-12.2Q323.87-15.05 324.57-17.48 325.27-19.9 326.69-21.68 328.12-23.45 330.27-24.48 332.42-25.5 335.27-25.5L335.27-25.5ZM334.77-21.3Q333.32-21.3 332.39-20.65 331.47-20 330.94-18.82 330.42-17.65 330.22-16.07 330.02-14.5 330.02-12.7L330.02-12.7Q330.02-10.85 330.24-9.2 330.47-7.55 331.07-6.33 331.67-5.1 332.69-4.4 333.72-3.7 335.32-3.7L335.32-3.7Q336.77-3.7 337.69-4.35 338.62-5 339.14-6.18 339.67-7.35 339.87-8.9 340.07-10.45 340.07-12.25L340.07-12.25Q340.07-14.1 339.84-15.75 339.62-17.4 339.02-18.65 338.42-19.9 337.39-20.6 336.37-21.3 334.77-21.3L334.77-21.3ZM366.81-34L364.36-30.75Q364.21-30.9 363.44-31.3 362.66-31.7 361.96-31.7L361.96-31.7Q361.51-31.7 360.86-31.58 360.21-31.45 359.61-31.03 359.01-30.6 358.59-29.8 358.16-29 358.16-27.7L358.16-27.7Q358.16-27.15 358.24-26.45 358.31-25.75 358.56-24.9L358.56-24.9 364.76-24.9 364.06-20.85 358.86-20.85 358.86-1.25Q358.86 1.75 358.09 3.78 357.31 5.8 356.06 7.18 354.81 8.55 353.29 9.47 351.76 10.4 350.26 11.15L350.26 11.15 347.96 7.35Q349.81 6.4 350.86 5.33 351.91 4.25 352.44 3.18 352.96 2.1 353.06 1.1 353.16 0.1 353.16-0.7L353.16-0.7 353.16-20.85 348.66-20.85 348.66-24.9 353.01-24.9Q352.81-25.65 352.74-26.45 352.66-27.25 352.66-27.95L352.66-27.95Q352.66-29.95 353.39-31.5 354.11-33.05 355.34-34.05 356.56-35.05 358.19-35.58 359.81-36.1 361.56-36.1L361.56-36.1Q363.51-36.1 364.76-35.48 366.01-34.85 366.81-34L366.81-34ZM402.16-24.9L401.91-10.1Q401.91-8.6 402.13-7.35 402.36-6.1 402.63-4.88 402.91-3.65 403.16-2.4 403.41-1.15 403.41 0.35L403.41 0.35Q403.41 5.65 400.71 8.25 398.01 10.85 393.41 10.85L393.41 10.85Q391.91 10.85 390.41 10.58 388.91 10.3 387.63 9.95 386.36 9.6 385.46 9.25 384.56 8.9 384.26 8.75L384.26 8.75 385.66 4.4Q386.36 4.7 387.23 5.03 388.11 5.35 389.03 5.65 389.96 5.95 390.96 6.15 391.96 6.35 392.91 6.35L392.91 6.35Q395.71 6.35 396.96 4.67 398.21 3 398.21 0.35L398.21 0.35Q398.21-2.05 397.21-4.6L397.21-4.6Q395.81-1.95 393.48-0.83 391.16 0.3 388.61 0.3L388.61 0.3Q384.66 0.3 382.98-2 381.31-4.3 381.31-8.3L381.31-8.3 381.31-24.9 387.01-24.9 387.01-8.45Q387.01-6.35 387.76-5.15 388.51-3.95 390.31-3.95L390.31-3.95Q391.26-3.95 392.33-4.5 393.41-5.05 394.28-6.03 395.16-7 395.73-8.38 396.31-9.75 396.31-11.35L396.31-11.35 396.31-24.9 402.16-24.9ZM418.36-25.5Q424.11-25.5 426.71-22.1 429.31-18.7 429.31-12.75L429.31-12.75Q429.31-9.95 428.61-7.53 427.91-5.1 426.48-3.33 425.06-1.55 422.91-0.53 420.76 0.5 417.91 0.5L417.91 0.5Q415.06 0.5 412.98-0.38 410.91-1.25 409.56-2.9 408.21-4.55 407.58-6.9 406.96-9.25 406.96-12.2L406.96-12.2Q406.96-15.05 407.66-17.48 408.36-19.9 409.78-21.68 411.21-23.45 413.36-24.48 415.51-25.5 418.36-25.5L418.36-25.5ZM417.86-21.3Q416.41-21.3 415.48-20.65 414.56-20 414.03-18.82 413.51-17.65 413.31-16.07 413.11-14.5 413.11-12.7L413.11-12.7Q413.11-10.85 413.33-9.2 413.56-7.55 414.16-6.33 414.76-5.1 415.78-4.4 416.81-3.7 418.41-3.7L418.41-3.7Q419.86-3.7 420.78-4.35 421.71-5 422.23-6.18 422.76-7.35 422.96-8.9 423.16-10.45 423.16-12.25L423.16-12.25Q423.16-14.1 422.93-15.75 422.71-17.4 422.11-18.65 421.51-19.9 420.48-20.6 419.46-21.3 417.86-21.3L417.86-21.3ZM449.1-12.7L449.1-24.9 454.8-24.9 454.8-12.05Q454.8-9.05 455.18-7.03 455.55-5 456-3.75L456-3.75Q456.55-2.25 457.2-1.4L457.2-1.4 452.75 0.4Q452.15-0.15 451.65-1L451.65-1Q451.25-1.7 450.83-2.73 450.4-3.75 450.25-5.15L450.25-5.15Q448.9-2.2 446.45-0.95 444 0.3 441.35 0.3L441.35 0.3Q437.4 0.3 435.73-2 434.05-4.3 434.05-8.3L434.05-8.3 434.05-24.9 439.75-24.9 439.75-8.4Q439.75-6.3 440.5-5.1 441.25-3.9 443.05-3.9L443.05-3.9Q444.15-3.9 445.23-4.53 446.3-5.15 447.18-6.3 448.05-7.45 448.58-9.08 449.1-10.7 449.1-12.7L449.1-12.7ZM472.9-19.7Q472-19.7 471.1-19.25 470.2-18.8 469.5-18.03 468.8-17.25 468.35-16.15 467.9-15.05 467.9-13.7L467.9-13.7 467.9 0 462.2 0 462.2-12.6Q462.2-15.6 461.8-17.63 461.4-19.65 460.95-20.9L460.95-20.9Q460.4-22.35 459.75-23.25L459.75-23.25 464.25-25.05Q464.7-24.5 465.2-23.7L465.2-23.7Q465.6-23 466-22.05 466.4-21.1 466.65-19.8L466.65-19.8Q467.65-22.7 469.55-23.98 471.45-25.25 473.85-25.25L473.85-25.25Q475-25.25 476-24.98 477-24.7 476.95-24.7L476.95-24.7 475.35-19.15Q475.4-19.15 474.78-19.43 474.15-19.7 472.9-19.7L472.9-19.7ZM492.95-1.15L492.95-35.25 498.65-36.25 498.65-21Q499.55-23.05 501.17-24.18 502.8-25.3 505.35-25.3L505.35-25.3Q507.7-25.3 509.42-24.43 511.15-23.55 512.3-21.93 513.45-20.3 514-18 514.55-15.7 514.55-12.9L514.55-12.9Q514.55-10.05 513.67-7.63 512.8-5.2 511.22-3.45 509.65-1.7 507.45-0.7 505.25 0.3 502.6 0.3L502.6 0.3Q501.1 0.3 499.4 0.08 497.7-0.15 496.25-0.4L496.25-0.4Q494.6-0.7 492.95-1.15L492.95-1.15ZM504.4-21.3Q503.15-21.3 502.1-20.45 501.05-19.6 500.27-18.2 499.5-16.8 499.07-15.05 498.65-13.3 498.65-11.45L498.65-11.45 498.65-4.2Q499.1-4.1 500.1-3.9 501.1-3.7 501.95-3.7L501.95-3.7Q503.8-3.7 505.05-4.35 506.3-5 507.05-6.15 507.8-7.3 508.1-8.9 508.4-10.5 508.4-12.4L508.4-12.4Q508.4-14.15 508.3-15.75 508.2-17.35 507.77-18.6 507.35-19.85 506.55-20.58 505.75-21.3 504.4-21.3L504.4-21.3ZM530.69-19.7Q529.79-19.7 528.89-19.25 527.99-18.8 527.29-18.03 526.59-17.25 526.14-16.15 525.69-15.05 525.69-13.7L525.69-13.7 525.69 0 519.99 0 519.99-12.6Q519.99-15.6 519.59-17.63 519.19-19.65 518.74-20.9L518.74-20.9Q518.19-22.35 517.54-23.25L517.54-23.25 522.04-25.05Q522.49-24.5 522.99-23.7L522.99-23.7Q523.39-23 523.79-22.05 524.19-21.1 524.44-19.8L524.44-19.8Q525.44-22.7 527.34-23.98 529.24-25.25 531.64-25.25L531.64-25.25Q532.79-25.25 533.79-24.98 534.79-24.7 534.74-24.7L534.74-24.7 533.14-19.15Q533.19-19.15 532.57-19.43 531.94-19.7 530.69-19.7L530.69-19.7ZM556.59-23.85L556.59-12.05Q556.59-9.05 556.97-7.03 557.34-5 557.79-3.75L557.79-3.75Q558.34-2.25 558.99-1.4L558.99-1.4 554.54 0.4Q553.89-0.25 553.34-1.15L553.34-1.15Q552.89-1.95 552.49-3.08 552.09-4.2 551.99-5.75L551.99-5.75Q551.14-2.75 549.26-1.23 547.39 0.3 544.19 0.3L544.19 0.3Q541.84 0.3 540.12-0.58 538.39-1.45 537.24-3.08 536.09-4.7 535.54-7 534.99-9.3 534.99-12.1L534.99-12.1Q534.99-14.95 535.87-17.38 536.74-19.8 538.32-21.55 539.89-23.3 542.09-24.3 544.29-25.3 546.94-25.3L546.94-25.3Q548.44-25.3 550.07-25.08 551.69-24.85 553.09-24.6 554.49-24.35 555.47-24.13 556.44-23.9 556.59-23.85L556.59-23.85ZM545.14-3.7Q546.39-3.7 547.44-4.55 548.49-5.4 549.26-6.78 550.04-8.15 550.47-9.93 550.89-11.7 550.89-13.55L550.89-13.55 550.89-20.75Q550.39-20.9 549.39-21.1 548.39-21.3 547.59-21.3L547.59-21.3Q545.69-21.3 544.47-20.65 543.24-20 542.49-18.85 541.74-17.7 541.44-16.1 541.14-14.5 541.14-12.6L541.14-12.6Q541.14-10.85 541.24-9.25 541.34-7.65 541.76-6.4 542.19-5.15 542.99-4.42 543.79-3.7 545.14-3.7L545.14-3.7ZM583.44 0L577.79 0 577.79-16.15Q577.79-18.25 577.04-19.53 576.29-20.8 574.49-20.8L574.49-20.8Q573.34-20.8 572.26-20.23 571.19-19.65 570.34-18.55 569.49-17.45 568.96-15.88 568.44-14.3 568.44-12.35L568.44-12.35 568.44 0 562.74 0 562.74-12.6Q562.74-15.6 562.34-17.63 561.94-19.65 561.49-20.9L561.49-20.9Q560.94-22.35 560.29-23.25L560.29-23.25 564.79-25.05Q565.29-24.5 565.79-23.7L565.79-23.7Q566.19-23 566.59-21.98 566.99-20.95 567.24-19.65L567.24-19.65Q568.54-22.65 570.99-23.98 573.44-25.3 576.14-25.3L576.14-25.3Q579.99-25.3 581.71-22.98 583.44-20.65 583.44-16.7L583.44-16.7 583.44 0ZM612.23-1.4L607.78 0.4Q607.68 0.35 607.33-0.08 606.98-0.5 606.56-1.25 606.13-2 605.73-3.13 605.33-4.25 605.23-5.75L605.23-5.75Q604.38-2.75 602.51-1.23 600.63 0.3 597.43 0.3L597.43 0.3Q595.08 0.3 593.36-0.58 591.63-1.45 590.48-3.08 589.33-4.7 588.78-7 588.23-9.3 588.23-12.1L588.23-12.1Q588.23-14.95 589.11-17.38 589.98-19.8 591.56-21.55 593.13-23.3 595.33-24.3 597.53-25.3 600.18-25.3L600.18-25.3Q601.08-25.3 602.11-25.2 603.13-25.1 604.13-24.95L604.13-24.95 604.13-36.25 609.83-35.25 609.83-12.05Q609.83-9.05 610.18-7.08 610.53-5.1 610.98-3.88 611.43-2.65 611.81-2.1 612.18-1.55 612.23-1.4L612.23-1.4ZM598.38-3.75Q599.63-3.75 600.68-4.6 601.73-5.45 602.51-6.83 603.28-8.2 603.71-9.95 604.13-11.7 604.13-13.55L604.13-13.55 604.13-20.75Q603.63-20.9 602.63-21.1 601.63-21.3 600.83-21.3L600.83-21.3Q598.93-21.3 597.71-20.65 596.48-20 595.73-18.85 594.98-17.7 594.68-16.1 594.38-14.5 594.38-12.6L594.38-12.6Q594.38-10.85 594.48-9.25 594.58-7.65 595.01-6.43 595.43-5.2 596.23-4.48 597.03-3.75 598.38-3.75L598.38-3.75Z" opacity="1" transform="matrix(1,0,0,1,0,0)" fill="#292929" class="slogan-text-1" data-fill-palette-color="secondary" id="text-1"></path></svg></g></svg></g></svg></g></svg></g></svg></g><defs></defs></svg><rect width="395.52" height="65.33229384446813" fill="none" stroke="none" visibility="hidden"></rect></g></svg></g></svg>